<mxfile host="app.diagrams.net" modified="2023-08-17T04:18:09.300Z" agent="Mozilla/5.0 (Windows NT 10.0; Win64; x64) AppleWebKit/537.36 (KHTML, like Gecko) Chrome/115.0.0.0 Safari/537.36" etag="-i1l5dMb01tMX1ieKk4w" version="21.6.8" type="github">
  <diagram name="페이지-1" id="jEqTV79KLIluIE3mg7o3">
    <mxGraphModel dx="1195" dy="632" grid="1" gridSize="10" guides="1" tooltips="1" connect="1" arrows="1" fold="1" page="1" pageScale="1" pageWidth="827" pageHeight="1169" math="0" shadow="0">
      <root>
        <mxCell id="0" />
        <mxCell id="1" parent="0" />
        <mxCell id="sRAHWQgxMoqwBvq5ufu7-1" value="Zwift" style="rounded=0;whiteSpace=wrap;html=1;" parent="1" vertex="1">
          <mxGeometry x="90" y="50" width="120" height="30" as="geometry" />
        </mxCell>
        <mxCell id="sRAHWQgxMoqwBvq5ufu7-2" value="로그인" style="rounded=0;whiteSpace=wrap;html=1;" parent="1" vertex="1">
          <mxGeometry x="90" y="100" width="120" height="30" as="geometry" />
        </mxCell>
        <mxCell id="sRAHWQgxMoqwBvq5ufu7-3" value="" style="endArrow=none;html=1;rounded=0;entryX=0.5;entryY=1;entryDx=0;entryDy=0;exitX=0.5;exitY=0;exitDx=0;exitDy=0;" parent="1" source="sRAHWQgxMoqwBvq5ufu7-2" target="sRAHWQgxMoqwBvq5ufu7-1" edge="1">
          <mxGeometry width="50" height="50" relative="1" as="geometry">
            <mxPoint x="390" y="420" as="sourcePoint" />
            <mxPoint x="440" y="370" as="targetPoint" />
          </mxGeometry>
        </mxCell>
        <mxCell id="sRAHWQgxMoqwBvq5ufu7-4" value="사용자 변경" style="rounded=0;whiteSpace=wrap;html=1;" parent="1" vertex="1">
          <mxGeometry x="160" y="240" width="120" height="30" as="geometry" />
        </mxCell>
        <mxCell id="sRAHWQgxMoqwBvq5ufu7-5" value="비밀번호 찾기" style="rounded=0;whiteSpace=wrap;html=1;" parent="1" vertex="1">
          <mxGeometry x="230" y="100" width="120" height="30" as="geometry" />
        </mxCell>
        <mxCell id="sRAHWQgxMoqwBvq5ufu7-8" value="" style="endArrow=none;html=1;rounded=0;entryX=1;entryY=0.5;entryDx=0;entryDy=0;" parent="1" target="sRAHWQgxMoqwBvq5ufu7-2" edge="1">
          <mxGeometry width="50" height="50" relative="1" as="geometry">
            <mxPoint x="230" y="115" as="sourcePoint" />
            <mxPoint x="280" y="210" as="targetPoint" />
          </mxGeometry>
        </mxCell>
        <mxCell id="sRAHWQgxMoqwBvq5ufu7-9" value="이용약관" style="rounded=0;whiteSpace=wrap;html=1;" parent="1" vertex="1">
          <mxGeometry x="230" y="130" width="120" height="30" as="geometry" />
        </mxCell>
        <mxCell id="sRAHWQgxMoqwBvq5ufu7-10" value="개인정보 취급방침" style="rounded=0;whiteSpace=wrap;html=1;" parent="1" vertex="1">
          <mxGeometry x="230" y="160" width="120" height="30" as="geometry" />
        </mxCell>
        <mxCell id="sRAHWQgxMoqwBvq5ufu7-11" value="회원가입" style="rounded=0;whiteSpace=wrap;html=1;" parent="1" vertex="1">
          <mxGeometry x="230" y="200" width="120" height="30" as="geometry" />
        </mxCell>
        <mxCell id="sRAHWQgxMoqwBvq5ufu7-12" value="이메일" style="rounded=0;whiteSpace=wrap;html=1;" parent="1" vertex="1">
          <mxGeometry x="370" y="200" width="120" height="30" as="geometry" />
        </mxCell>
        <mxCell id="sRAHWQgxMoqwBvq5ufu7-14" value="" style="endArrow=none;html=1;rounded=0;entryX=1;entryY=0.5;entryDx=0;entryDy=0;exitX=0;exitY=0.5;exitDx=0;exitDy=0;" parent="1" source="sRAHWQgxMoqwBvq5ufu7-12" target="sRAHWQgxMoqwBvq5ufu7-11" edge="1">
          <mxGeometry width="50" height="50" relative="1" as="geometry">
            <mxPoint x="370" y="214.8" as="sourcePoint" />
            <mxPoint x="350" y="214.8" as="targetPoint" />
          </mxGeometry>
        </mxCell>
        <mxCell id="sRAHWQgxMoqwBvq5ufu7-18" value="" style="endArrow=none;html=1;rounded=0;entryX=1;entryY=0.5;entryDx=0;entryDy=0;exitX=0;exitY=0.5;exitDx=0;exitDy=0;" parent="1" edge="1">
          <mxGeometry width="50" height="50" relative="1" as="geometry">
            <mxPoint x="510" y="214.82999999999998" as="sourcePoint" />
            <mxPoint x="490" y="214.82999999999998" as="targetPoint" />
          </mxGeometry>
        </mxCell>
        <mxCell id="sRAHWQgxMoqwBvq5ufu7-20" value="회원정보 입력" style="rounded=0;whiteSpace=wrap;html=1;" parent="1" vertex="1">
          <mxGeometry x="510" y="200" width="120" height="30" as="geometry" />
        </mxCell>
        <mxCell id="sRAHWQgxMoqwBvq5ufu7-22" value="" style="endArrow=none;html=1;rounded=0;entryX=0.5;entryY=1;entryDx=0;entryDy=0;" parent="1" edge="1">
          <mxGeometry width="50" height="50" relative="1" as="geometry">
            <mxPoint x="150" y="295" as="sourcePoint" />
            <mxPoint x="149.66" y="130" as="targetPoint" />
          </mxGeometry>
        </mxCell>
        <mxCell id="sRAHWQgxMoqwBvq5ufu7-23" value="" style="endArrow=none;html=1;rounded=0;entryX=0.5;entryY=1;entryDx=0;entryDy=0;exitX=0.5;exitY=0;exitDx=0;exitDy=0;" parent="1" edge="1">
          <mxGeometry width="50" height="50" relative="1" as="geometry">
            <mxPoint x="219.82999999999998" y="330" as="sourcePoint" />
            <mxPoint x="219.82999999999998" y="310" as="targetPoint" />
          </mxGeometry>
        </mxCell>
        <mxCell id="sRAHWQgxMoqwBvq5ufu7-24" value="디바이스 연동" style="rounded=0;whiteSpace=wrap;html=1;" parent="1" vertex="1">
          <mxGeometry x="160" y="330" width="120" height="30" as="geometry" />
        </mxCell>
        <mxCell id="sRAHWQgxMoqwBvq5ufu7-25" value="파워 소스" style="rounded=0;whiteSpace=wrap;html=1;" parent="1" vertex="1">
          <mxGeometry x="160" y="380" width="120" height="30" as="geometry" />
        </mxCell>
        <mxCell id="sRAHWQgxMoqwBvq5ufu7-26" value="스피드 센서" style="rounded=0;whiteSpace=wrap;html=1;" parent="1" vertex="1">
          <mxGeometry x="160" y="410" width="120" height="30" as="geometry" />
        </mxCell>
        <mxCell id="sRAHWQgxMoqwBvq5ufu7-30" value="프로필" style="rounded=0;whiteSpace=wrap;html=1;" parent="1" vertex="1">
          <mxGeometry x="440" y="330" width="120" height="30" as="geometry" />
        </mxCell>
        <mxCell id="sRAHWQgxMoqwBvq5ufu7-32" value="설정" style="rounded=0;whiteSpace=wrap;html=1;" parent="1" vertex="1">
          <mxGeometry x="580" y="330" width="120" height="30" as="geometry" />
        </mxCell>
        <mxCell id="sRAHWQgxMoqwBvq5ufu7-34" value="경주" style="rounded=0;whiteSpace=wrap;html=1;" parent="1" vertex="1">
          <mxGeometry x="300" y="330" width="120" height="30" as="geometry" />
        </mxCell>
        <mxCell id="sRAHWQgxMoqwBvq5ufu7-40" value="이름" style="rounded=0;whiteSpace=wrap;html=1;" parent="1" vertex="1">
          <mxGeometry x="440" y="380" width="120" height="30" as="geometry" />
        </mxCell>
        <mxCell id="sRAHWQgxMoqwBvq5ufu7-41" value="생일" style="rounded=0;whiteSpace=wrap;html=1;" parent="1" vertex="1">
          <mxGeometry x="440" y="410" width="120" height="30" as="geometry" />
        </mxCell>
        <mxCell id="sRAHWQgxMoqwBvq5ufu7-42" value="국적" style="rounded=0;whiteSpace=wrap;html=1;" parent="1" vertex="1">
          <mxGeometry x="440" y="440" width="120" height="30" as="geometry" />
        </mxCell>
        <mxCell id="sRAHWQgxMoqwBvq5ufu7-43" value="몸무게(kg)" style="rounded=0;whiteSpace=wrap;html=1;" parent="1" vertex="1">
          <mxGeometry x="440" y="530" width="120" height="30" as="geometry" />
        </mxCell>
        <mxCell id="sRAHWQgxMoqwBvq5ufu7-44" value="키(cm)" style="rounded=0;whiteSpace=wrap;html=1;" parent="1" vertex="1">
          <mxGeometry x="440" y="500" width="120" height="30" as="geometry" />
        </mxCell>
        <mxCell id="sRAHWQgxMoqwBvq5ufu7-45" value="성별" style="rounded=0;whiteSpace=wrap;html=1;" parent="1" vertex="1">
          <mxGeometry x="440" y="470" width="120" height="30" as="geometry" />
        </mxCell>
        <mxCell id="sRAHWQgxMoqwBvq5ufu7-46" value="단위" style="rounded=0;whiteSpace=wrap;html=1;" parent="1" vertex="1">
          <mxGeometry x="440" y="560" width="120" height="30" as="geometry" />
        </mxCell>
        <mxCell id="sRAHWQgxMoqwBvq5ufu7-47" value="환경 설정" style="rounded=0;whiteSpace=wrap;html=1;" parent="1" vertex="1">
          <mxGeometry x="580" y="380" width="120" height="30" as="geometry" />
        </mxCell>
        <mxCell id="sRAHWQgxMoqwBvq5ufu7-48" value="오디오 및 표시" style="rounded=0;whiteSpace=wrap;html=1;" parent="1" vertex="1">
          <mxGeometry x="580" y="410" width="120" height="30" as="geometry" />
        </mxCell>
        <mxCell id="sRAHWQgxMoqwBvq5ufu7-49" value="스냅샷" style="rounded=0;whiteSpace=wrap;html=1;" parent="1" vertex="1">
          <mxGeometry x="300" y="440" width="120" height="30" as="geometry" />
        </mxCell>
        <mxCell id="sRAHWQgxMoqwBvq5ufu7-50" value="메시지" style="rounded=0;whiteSpace=wrap;html=1;" parent="1" vertex="1">
          <mxGeometry x="300" y="380" width="120" height="30" as="geometry" />
        </mxCell>
        <mxCell id="sRAHWQgxMoqwBvq5ufu7-51" value="이모티콘" style="rounded=0;whiteSpace=wrap;html=1;" parent="1" vertex="1">
          <mxGeometry x="300" y="410" width="120" height="30" as="geometry" />
        </mxCell>
        <mxCell id="sRAHWQgxMoqwBvq5ufu7-52" value="" style="endArrow=none;html=1;rounded=0;entryX=0.5;entryY=1;entryDx=0;entryDy=0;exitX=0.5;exitY=0;exitDx=0;exitDy=0;" parent="1" edge="1">
          <mxGeometry width="50" height="50" relative="1" as="geometry">
            <mxPoint x="499.5799999999999" y="380" as="sourcePoint" />
            <mxPoint x="499.5799999999999" y="360" as="targetPoint" />
          </mxGeometry>
        </mxCell>
        <mxCell id="sRAHWQgxMoqwBvq5ufu7-53" value="" style="endArrow=none;html=1;rounded=0;entryX=0.5;entryY=1;entryDx=0;entryDy=0;exitX=0.5;exitY=0;exitDx=0;exitDy=0;" parent="1" edge="1">
          <mxGeometry width="50" height="50" relative="1" as="geometry">
            <mxPoint x="639.58" y="380" as="sourcePoint" />
            <mxPoint x="639.58" y="360" as="targetPoint" />
          </mxGeometry>
        </mxCell>
        <mxCell id="sRAHWQgxMoqwBvq5ufu7-54" value="" style="endArrow=none;html=1;rounded=0;entryX=0.5;entryY=1;entryDx=0;entryDy=0;exitX=0.5;exitY=0;exitDx=0;exitDy=0;" parent="1" edge="1">
          <mxGeometry width="50" height="50" relative="1" as="geometry">
            <mxPoint x="359.5799999999999" y="380" as="sourcePoint" />
            <mxPoint x="359.5799999999999" y="360" as="targetPoint" />
          </mxGeometry>
        </mxCell>
        <mxCell id="I3NpKg57AZdCj54GZoln-1" value="" style="endArrow=none;html=1;rounded=0;" parent="1" edge="1">
          <mxGeometry width="50" height="50" relative="1" as="geometry">
            <mxPoint x="220" y="215" as="sourcePoint" />
            <mxPoint x="220" y="115" as="targetPoint" />
          </mxGeometry>
        </mxCell>
        <mxCell id="I3NpKg57AZdCj54GZoln-2" value="" style="endArrow=none;html=1;rounded=0;exitX=0;exitY=0.5;exitDx=0;exitDy=0;" parent="1" source="sRAHWQgxMoqwBvq5ufu7-11" edge="1">
          <mxGeometry width="50" height="50" relative="1" as="geometry">
            <mxPoint x="200" y="214.76" as="sourcePoint" />
            <mxPoint x="220" y="215" as="targetPoint" />
          </mxGeometry>
        </mxCell>
        <mxCell id="I3NpKg57AZdCj54GZoln-4" value="시작" style="rounded=0;whiteSpace=wrap;html=1;" parent="1" vertex="1">
          <mxGeometry x="160" y="280" width="120" height="30" as="geometry" />
        </mxCell>
        <mxCell id="I3NpKg57AZdCj54GZoln-6" value="" style="endArrow=none;html=1;rounded=0;exitX=0;exitY=0.5;exitDx=0;exitDy=0;" parent="1" edge="1">
          <mxGeometry width="50" height="50" relative="1" as="geometry">
            <mxPoint x="160" y="254.8" as="sourcePoint" />
            <mxPoint x="150" y="254.8" as="targetPoint" />
          </mxGeometry>
        </mxCell>
        <mxCell id="I3NpKg57AZdCj54GZoln-7" value="" style="endArrow=none;html=1;rounded=0;exitX=0;exitY=0.5;exitDx=0;exitDy=0;" parent="1" edge="1">
          <mxGeometry width="50" height="50" relative="1" as="geometry">
            <mxPoint x="160" y="294.8" as="sourcePoint" />
            <mxPoint x="150" y="294.8" as="targetPoint" />
          </mxGeometry>
        </mxCell>
        <mxCell id="I3NpKg57AZdCj54GZoln-8" value="" style="endArrow=none;html=1;rounded=0;" parent="1" edge="1">
          <mxGeometry width="50" height="50" relative="1" as="geometry">
            <mxPoint x="640" y="320" as="sourcePoint" />
            <mxPoint x="220" y="320" as="targetPoint" />
          </mxGeometry>
        </mxCell>
        <mxCell id="I3NpKg57AZdCj54GZoln-9" value="" style="endArrow=none;html=1;rounded=0;entryX=0.5;entryY=1;entryDx=0;entryDy=0;exitX=0.5;exitY=0;exitDx=0;exitDy=0;" parent="1" edge="1">
          <mxGeometry width="50" height="50" relative="1" as="geometry">
            <mxPoint x="219.76" y="380" as="sourcePoint" />
            <mxPoint x="219.76" y="360" as="targetPoint" />
          </mxGeometry>
        </mxCell>
        <mxCell id="I3NpKg57AZdCj54GZoln-10" value="" style="endArrow=none;html=1;rounded=0;entryX=0.5;entryY=1;entryDx=0;entryDy=0;" parent="1" edge="1">
          <mxGeometry width="50" height="50" relative="1" as="geometry">
            <mxPoint x="360" y="330" as="sourcePoint" />
            <mxPoint x="360" y="320" as="targetPoint" />
          </mxGeometry>
        </mxCell>
        <mxCell id="I3NpKg57AZdCj54GZoln-13" value="" style="endArrow=none;html=1;rounded=0;entryX=0.5;entryY=1;entryDx=0;entryDy=0;" parent="1" edge="1">
          <mxGeometry width="50" height="50" relative="1" as="geometry">
            <mxPoint x="499.89" y="330" as="sourcePoint" />
            <mxPoint x="499.89" y="320" as="targetPoint" />
          </mxGeometry>
        </mxCell>
        <mxCell id="I3NpKg57AZdCj54GZoln-14" value="" style="endArrow=none;html=1;rounded=0;entryX=0.5;entryY=1;entryDx=0;entryDy=0;" parent="1" edge="1">
          <mxGeometry width="50" height="50" relative="1" as="geometry">
            <mxPoint x="639.89" y="330" as="sourcePoint" />
            <mxPoint x="639.89" y="320" as="targetPoint" />
          </mxGeometry>
        </mxCell>
      </root>
    </mxGraphModel>
  </diagram>
</mxfile>
